# xmcd CD database file
#
# Track frame offsets:
#	150
#	1068
#	19540
#	50590
#	91953
#	106563
#	123916
#	135901
#	162543
#
# Disc length: 2626 seconds
#
# Revision: 0
# Processed by: cddbd v1.4PL0 Copyright (c) Steve Scherf et al.
# Submitted via: CDex 1.50beta10
#
DISCID=5c0a4009
DTITLE=Albatross - Live In Sweden
DYEAR=1900
DGENRE=Blues
TTITLE0=Intro
TTITLE1=Walkin' By Myself
TTITLE2=Everybody's Got The Blues
TTITLE3=Worried Blues
TTITLE4=I'm Ready
TTITLE5=Hard Hearted Woman
TTITLE6=High School Queenie
TTITLE7=Alberta
TTITLE8=Night Time People
EXTD=
EXTT0=
EXTT1=
EXTT2=
EXTT3=
EXTT4=
EXTT5=
EXTT6=
EXTT7=
EXTT8=
PLAYORDER=
